<svg width="182" height="55" fill="none" xmlns="http://www.w3.org/2000/svg"><path d="M16.944 36l-.024-8.904-4.32 7.248h-2.112l-4.32-7.056V36H1.8V19.2h3.912l5.904 9.696 5.76-9.696h3.912l.048 16.8h-4.392zm57.104-10.296h7.8v3.552h-7.8v-3.552zm.336 6.624h8.784V36H69.68V19.2h13.176v3.672h-8.472v9.456zM87.485 36V19.2h3.912l9.264 11.184h-1.848V19.2h4.656V36h-3.912l-9.264-11.184h1.848V36h-4.656zm21.016 0V19.2h3.912l9.264 11.184h-1.848V19.2h4.656V36h-3.912l-9.264-11.184h1.848V36h-4.656zm21.016 0V19.2h4.752V36h-4.752zm17.565.336c-2.48 0-4.416-.68-5.808-2.04-1.392-1.36-2.088-3.288-2.088-5.784V19.2h4.752v9.168c0 1.44.28 2.472.84 3.096.576.624 1.36.936 2.352.936.992 0 1.768-.312 2.328-.936.56-.624.84-1.656.84-3.096V19.2h4.68v9.312c0 2.496-.696 4.424-2.088 5.784-1.392 1.36-3.328 2.04-5.808 2.04zM159.877 36V19.2h3.912l6.96 11.424h-2.064l6.768-11.424h3.912l.048 16.8h-4.368l-.048-10.152h.744l-5.064 8.496h-2.112l-5.208-8.496h.912V36h-4.392z" fill="#2A2367"/><path fill="#6B5AF9" d="M28 19h7v17h-7zM42 7h7v41h-7zm14-7h7v55h-7z"/></svg>