<svg width="18" height="18" fill="none" xmlns="http://www.w3.org/2000/svg"><g clip-path="url(#clip0_184_19)"><path d="M9 18A9 9 0 109 0a9 9 0 000 18z" fill="#707070"/><path d="M4.118 8.805l8.678-3.346c.402-.145.754.099.624.708v-.001l-1.477 6.96c-.11.494-.403.614-.813.382l-2.25-1.659-1.085 1.046c-.12.12-.222.221-.454.221l.16-2.29 4.17-3.767c.181-.16-.04-.25-.28-.09l-5.153 3.244-2.222-.693c-.482-.153-.493-.482.102-.715z" fill="#fff"/></g><defs><clipPath id="clip0_184_19"><path fill="#fff" d="M0 0h18v18H0z"/></clipPath></defs></svg>