<svg width="182" height="55" viewBox="0 0 182 55" fill="none" xmlns="http://www.w3.org/2000/svg">
<path d="M16.944 36L16.92 27.096L12.6 34.344H10.488L6.168 27.288V36H1.8V19.2H5.712L11.616 28.896L17.376 19.2H21.288L21.336 36H16.944Z" fill="#2A2367"/>
<path d="M74.048 25.704H81.848V29.256H74.048V25.704ZM74.384 32.328H83.168V36H69.68V19.2H82.856V22.872H74.384V32.328ZM87.485 36V19.2H91.397L100.661 30.384H98.813V19.2H103.469V36H99.557L90.293 24.816H92.141V36H87.485ZM108.501 36V19.2H112.413L121.677 30.384H119.829V19.2H124.485V36H120.573L111.309 24.816H113.157V36H108.501ZM129.517 36V19.2H134.269V36H129.517ZM147.082 36.336C144.602 36.336 142.666 35.656 141.274 34.296C139.882 32.936 139.186 31.008 139.186 28.512V19.2H143.938V28.368C143.938 29.808 144.218 30.84 144.778 31.464C145.354 32.088 146.138 32.4 147.13 32.4C148.122 32.4 148.898 32.088 149.458 31.464C150.018 30.84 150.298 29.808 150.298 28.368V19.2H154.978V28.512C154.978 31.008 154.282 32.936 152.89 34.296C151.498 35.656 149.562 36.336 147.082 36.336ZM159.877 36V19.2H163.789L170.749 30.624H168.685L175.453 19.2H179.365L179.413 36H175.045L174.997 25.848H175.741L170.677 34.344H168.565L163.357 25.848H164.269V36H159.877Z" fill="#2A2367"/>
<rect x="28" y="19" width="7" height="17" fill="#6B5AF9"/>
<rect x="42" y="7" width="7" height="41" fill="#6B5AF9"/>
<rect x="56" width="7" height="55" fill="#6B5AF9"/>
</svg>
